<svg width="671" height="375" viewBox="0 0 671 375" fill="none" xmlns="http://www.w3.org/2000/svg">
<g clip-path="url(#clip0_8_26)">
<path d="M426.869 50.7536C427.049 51.0934 430.203 57.469 433.905 64.9645C437.652 72.4056 440.656 78.7936 440.58 79.1036C440.508 79.4639 430.387 95.0267 418.044 113.759L395.563 147.852L393.022 148.364C388.138 149.32 271.113 169.723 264.112 170.802C255.065 172.25 230.216 174.282 222.362 174.215C211.012 174.13 195.804 173.297 191.748 172.616C187.997 171.961 181.462 170.064 179.661 169.097C179.025 168.744 179.009 167.935 179.542 162.676C179.928 159.353 180.323 156.131 180.421 155.465C180.582 154.337 180.582 154.337 174.042 154.872L167.453 155.411L165.768 158.333C164.835 159.929 163.932 161.269 163.781 161.281C163.278 161.322 151.848 153.446 143.174 147.065C127.823 135.813 100.303 114.466 83.8653 101.074C80.3952 98.2691 77.1674 95.9504 76.7147 95.9875C75.6584 96.0738 56.5579 102.142 56.2849 102.519C56.1422 102.632 56.4554 103.366 56.9698 104.083C60.587 109.307 123.204 202.576 123.508 203.209C123.813 203.843 123.629 204.06 122.723 204.134C120.56 204.311 117.826 205.547 117.892 206.352C117.924 206.755 118.509 208.327 119.19 209.841C119.874 211.406 120.442 212.777 120.459 212.978C120.508 213.582 116.725 215.005 99.0877 221.004C54.8509 236.115 29.4045 245.082 22.7404 247.804C16.567 250.335 14.9791 252.591 17.5356 255.37C19.3641 257.296 22.0917 257.833 30.4531 257.909L38.3073 257.976L54.3344 252.716C63.1614 249.817 74.7939 245.929 80.216 244.119C85.6381 242.308 94.8593 239.276 100.676 237.332C106.492 235.388 116.501 232.088 122.909 229.944L134.491 226.06L142.019 228.331C156.824 232.894 184.244 240.02 199.91 243.347C207.59 244.998 207.694 245.04 232.006 245.736C247.538 246.188 250.066 246.134 261.325 245.112C268.111 244.506 275.091 243.784 276.889 243.485C281.086 242.787 280.599 243.03 267.674 248.441C255.431 253.544 216.948 269.653 199.765 276.881C193.201 279.595 182.481 284.117 175.872 286.885C169.262 289.654 158.492 294.18 151.882 296.948C145.272 299.717 134.553 304.239 128.039 306.949C121.48 309.713 113.302 313.116 109.875 314.561L103.61 317.2L100.825 315.351C99.2761 314.364 94.6747 311.347 90.5507 308.596C84.2286 304.353 82.7503 303.613 81.2916 303.732C79.2292 303.9 61.6467 306.857 61.4619 307.075C61.3654 307.133 65.3129 310.203 70.1228 313.911C79.7301 321.177 85.3388 325.985 89.0205 330.14C93.5349 335.189 97.4062 336.088 109.931 335.064C117.372 334.405 118.969 334.123 122.156 332.85C124.169 332.077 131.823 329.072 139.086 326.25C160.093 318.102 183.75 308.927 226.443 292.271C240.773 286.694 317.561 256.617 326.54 253.098C328.452 252.334 328.553 252.326 331.245 254.283C334.092 256.279 335.185 256.645 335.091 255.488C334.938 253.627 339.054 251.316 343.023 250.94L344.482 250.821L342.366 253.425C339.065 257.644 338.192 260.602 339.913 261.828C340.667 262.375 341.669 262.242 344.721 261.182C345.757 260.844 346.084 261.122 347.321 263.248C349.093 266.344 353.2 269.503 356.723 270.48C359.991 271.429 374.878 271.427 379.511 270.491C381.208 270.2 388.373 269.26 395.394 268.433C403.623 267.507 408.775 266.732 409.895 266.184C412.873 264.827 419.915 259.289 421.511 257.133C423.376 254.55 425.616 247.885 425.789 244.428C425.949 241.427 425.337 238.895 423.111 233.354C421.187 228.397 418.438 225.736 414.194 224.614C412.69 224.18 411.488 223.721 411.475 223.571C411.463 223.42 415.194 222.608 419.831 221.723C424.422 220.892 434.794 218.93 442.877 217.459C450.956 215.938 466.841 213.272 478.092 211.542C525.892 204.09 579.504 194.643 601.139 189.836C617.846 186.091 628.764 180.894 642.419 170.157C650.506 163.774 655.326 158.316 656.002 154.817C656.606 151.679 655.944 149.151 653.952 147.085C651.739 144.785 643.569 140.237 635.179 136.72C631.351 135.109 627.343 133.158 626.217 132.389C622.753 129.901 616.997 127.863 608 125.982C605.819 125.526 603.448 125.079 600.872 124.638C581.355 121.271 573.611 120.688 561.941 121.642C554.899 122.218 535.406 124.723 522.8 126.615C506.345 129.124 475.951 133.938 466.862 135.492C460.771 136.547 455.124 137.464 454.218 137.538L452.609 137.669L453.127 135.956C453.46 135.068 457.153 121.398 461.331 105.612C468.047 80.6053 468.899 76.7885 468.276 75.9786C467.879 75.4541 462.344 69.0706 455.93 61.8474L444.274 48.7231L435.421 49.4469C428.53 50.0102 426.631 50.3174 426.869 50.7536Z" fill="url(#paint0_linear_8_26)"/>
</g>
<defs>
<linearGradient id="paint0_linear_8_26" x1="345.539" y1="315.803" x2="324.506" y2="58.5141" gradientUnits="userSpaceOnUse">
<stop stop-color="#97F9E7"/>
<stop offset="1" stop-color="#555555"/>
</linearGradient>
<clipPath id="clip0_8_26">
<rect width="646" height="323" fill="white" transform="translate(0 52.6344) rotate(-4.67349)"/>
</clipPath>
</defs>
</svg>
