<svg width="33" height="33" viewBox="0 0 33 33" fill="none" xmlns="http://www.w3.org/2000/svg">
<g clip-path="url(#clip0_5_4)">
<path d="M4.11211 13.5803L4.09277 27.167L2.72637 27.1863L1.35352 27.1992V29.1328V31.0664H0.676758H0V32.0332V33H5.05957H10.1191V32.0332V31.0664H9.44238H8.76562V29.1328V27.1992H7.41211H6.05859V20.0127C6.05859 16.0617 6.07793 12.8262 6.09727 12.8262C6.1166 12.8262 7.05762 13.3096 8.19199 13.8961L10.248 14.9725V16.0875V17.209H11.2148H12.1816V16.2422C12.1816 15.2947 12.1816 15.2754 12.3299 15.2432C12.4072 15.2303 13.5609 15.082 14.8887 14.9209C16.2164 14.7598 17.4152 14.6115 17.5506 14.5922L17.7891 14.5535V8.88809V3.22266L17.6473 3.19043C17.5635 3.17754 16.4098 3.0293 15.082 2.86816C13.7543 2.70703 12.5555 2.55879 12.4266 2.53945L12.1816 2.50078V1.54043V0.580078H11.2148H10.248V1.68867V2.80371L8.20488 3.86719C7.0834 4.45371 6.14238 4.93711 6.11016 4.95C6.08437 4.96289 6.05859 3.8543 6.05859 2.48789V0H5.0918H4.125L4.11211 13.5803ZM10.248 8.90098C10.248 11.2729 10.2223 12.7617 10.19 12.7488C10.1578 12.7359 9.21035 12.2525 8.09531 11.666L6.05859 10.6025V8.88164V7.16719L8.1082 6.09727C9.22969 5.51074 10.1707 5.02734 10.2029 5.02734C10.2287 5.02734 10.248 6.76758 10.248 8.90098Z" fill="#1A1617"/>
<path d="M19.7227 8.89453C19.7227 14.0121 19.7291 14.3086 19.8387 14.3021C19.8967 14.3021 21.1664 14.1475 22.6553 13.9605L25.3623 13.6254L25.3816 8.88164L25.3945 4.14433L22.6746 3.80918C21.1729 3.62871 19.8967 3.48047 19.8387 3.48047C19.7291 3.48047 19.7227 3.7834 19.7227 8.89453Z" fill="#FFE5D9"/>
<path d="M27.3281 8.8623V13.3418H27.4764C27.5537 13.3418 28.8299 13.1936 30.3123 13.0066L33 12.6715V8.88164C33 6.7998 32.9807 5.0918 32.9613 5.0918C32.8904 5.0918 27.7406 4.44726 27.5408 4.41504L27.3281 4.37637V8.8623Z" fill="#FF9E8E"/>
</g>
<defs>
<clipPath id="clip0_5_4">
<rect width="33" height="33" fill="white"/>
</clipPath>
</defs>
</svg>
