<svg width="29" height="29" viewBox="0 0 29 29" fill="none" xmlns="http://www.w3.org/2000/svg">
<g clip-path="url(#clip0_26_15)">
<path d="M14.5 0C6.49102 0 0 6.49102 0 14.5C0 22.509 6.49102 29 14.5 29C22.509 29 29 22.509 29 14.5C29 6.49102 22.509 0 14.5 0ZM20.2887 12.2457C20.2943 12.3703 20.2943 12.5006 20.2943 12.6309C20.2943 16.5674 17.298 21.11 11.8152 21.11C10.133 21.11 8.56406 20.6172 7.25 19.7732C7.48223 19.8016 7.72012 19.8129 7.96367 19.8129C9.35703 19.8129 10.6428 19.3371 11.6623 18.5385C10.3596 18.5158 9.25508 17.6549 8.88125 16.4711C9.0625 16.5051 9.24941 16.5221 9.44199 16.5221C9.71387 16.5221 9.98008 16.4881 10.2293 16.4145C8.86426 16.1426 7.83906 14.9361 7.83906 13.4918V13.4578C8.24121 13.6787 8.7 13.8146 9.18711 13.8316C8.38848 13.2992 7.86172 12.3816 7.86172 11.3508C7.86172 10.807 8.00898 10.2916 8.26387 9.8498C9.73652 11.6566 11.9285 12.8404 14.4037 12.965C14.3527 12.7498 14.3244 12.5232 14.3244 12.2854C14.3244 10.6428 15.6611 9.30605 17.3037 9.30605C18.159 9.30605 18.935 9.66855 19.4787 10.2463C20.1584 10.1104 20.7928 9.8668 21.3705 9.52129C21.1496 10.218 20.6738 10.8014 20.0621 11.1695C20.6625 11.0959 21.2402 10.9373 21.7727 10.6994C21.3762 11.2998 20.8721 11.8209 20.2887 12.2457Z" fill="#BBBBBB"/>
</g>
<defs>
<clipPath id="clip0_26_15">
<rect width="29" height="29" fill="white"/>
</clipPath>
</defs>
</svg>
