<svg width="1440" height="137" viewBox="0 0 1440 137" fill="none" xmlns="http://www.w3.org/2000/svg">
<g clip-path="url(#clip0_6_21)">
<path d="M1440 -403H0V137H1440V-403Z" fill="#1F1F1F"/>
<path d="M0 -3.05176e-05L34.3 12.2C68.7 24.3 137.3 48.7 205.8 69.7C274.3 90.7 342.7 108.3 411.2 102.8C479.7 97.3 548.3 68.7 617 63C685.7 57.3 754.3 74.7 823 76.3C891.7 78 960.3 64 1028.8 62C1097.3 60 1165.7 70 1234.2 71.3C1302.7 72.7 1371.3 65.3 1405.7 61.7L1440 58V202H1405.7C1371.3 202 1302.7 202 1234.2 202C1165.7 202 1097.3 202 1028.8 202C960.3 202 891.7 202 823 202C754.3 202 685.7 202 617 202C548.3 202 479.7 202 411.2 202C342.7 202 274.3 202 205.8 202C137.3 202 68.7 202 34.3 202H0V-3.05176e-05Z" fill="#BBBBBB"/>
</g>
<defs>
<clipPath id="clip0_6_21">
<rect width="1440" height="137" fill="white"/>
</clipPath>
</defs>
</svg>
